<svg xmlns="http://www.w3.org/2000/svg" viewBox="0 0 605 140"><g id="text"><g id="g5204"><path id="path5186" d="M192.92,51.69q-10.6,0-12.63,15.42-1,8,1.22,12a7.92,7.92,0,0,0,7.29,4,11.48,11.48,0,0,0,7.82-3.09,11.29,11.29,0,0,0,4.13-7.22l1.37-10.41a9,9,0,0,0-2.19-7.52A8.84,8.84,0,0,0,192.92,51.69Zm-9.44,41q-8.47,0-13-6.74t-2.92-18.79q1.58-12,7.54-18.5a19.68,19.68,0,0,1,15-6.56,17.12,17.12,0,0,1,7.78,1.64A17.82,17.82,0,0,1,204,49.18a.24.24,0,0,0,.18.1c.07,0,.1,0,.11-.1l.09-.67a6.36,6.36,0,0,1,2.24-3.86A6.15,6.15,0,0,1,210.83,43h1.06a4.31,4.31,0,0,1,3.54,1.63,4.68,4.68,0,0,1,1.13,3.86L211.2,89.27q-3.44,26-29.45,26a63.85,63.85,0,0,1-9.63-.77,5.17,5.17,0,0,1-3.55-2.31,6.06,6.06,0,0,1-.89-4.24,4.29,4.29,0,0,1,1.95-3.09,4.65,4.65,0,0,1,3.64-.58,37.45,37.45,0,0,0,9.49,1.16q7.13,0,10.9-3.76t4.87-12.14l.4-3q0-.09-.09-.09a.32.32,0,0,0-.2.09,21.69,21.69,0,0,1-15.16,6.07Z" transform="translate(0 0)" style="fill:#dfdfdf"/><path id="path5188" d="M220.21,93.13a4.61,4.61,0,0,1-3.64-1.64,4.67,4.67,0,0,1-1.13-3.86l5.15-39.12a6.14,6.14,0,0,1,2.14-3.86A6,6,0,0,1,226.8,43h1.93a4.6,4.6,0,0,1,3.64,1.63,4.68,4.68,0,0,1,1.13,3.86L233,52.56c0,.06,0,.09.08.09s.2,0,.21-.09a25.52,25.52,0,0,1,8.15-6.27,28.81,28.81,0,0,1,10.33-3.08A3.55,3.55,0,0,1,255,44.56,4.23,4.23,0,0,1,256,48a5.5,5.5,0,0,1-1.9,3.47,6.34,6.34,0,0,1-3.69,1.63q-17.24,1.35-19.34,17.35l-2.26,17.15a6.11,6.11,0,0,1-2.14,3.86,6.05,6.05,0,0,1-4.07,1.64Z" transform="translate(0 0)" style="fill:#dfdfdf"/><path id="path5190" d="M286.29,55.45q-2.27-4.05-8-4.05a11.33,11.33,0,0,0-9.11,4.05q-3.32,3.94-4.46,12.62t1.12,12.72q2.37,4,8.06,3.95a11.11,11.11,0,0,0,9-3.95q3.42-4,4.56-12.72T286.29,55.45Zm5.24,31.89q-7.25,6.75-18.81,6.75t-17.13-6.75q-5.46-6.84-3.83-19.27t8.89-19.18q7.35-6.84,18.92-6.84t17,6.84q5.57,6.75,3.93,19.18T291.53,87.34Z" transform="translate(0 0)" style="fill:#dfdfdf"/><path id="path5192" d="M305.57,93.13a4.63,4.63,0,0,1-3.64-1.64,4.9,4.9,0,0,1-1-3.86l5.15-39.12a6.34,6.34,0,0,1,2.05-3.86A6,6,0,0,1,312.17,43h1.35a4.45,4.45,0,0,1,3.55,1.54,4.66,4.66,0,0,1,1.24,3.76l-.08.67c0,.07,0,.1.08.1s.2,0,.2-.1q6.6-6.93,13.73-6.94A11.8,11.8,0,0,1,339,43.69q2.47,1.64,4,5.78c0,.07.05.1.18.1a.29.29,0,0,0,.2-.1q7.05-7.41,14.66-7.42,8,0,10.9,4.34t1.6,14.94L367,87.63a6.13,6.13,0,0,1-2.15,3.86,5.69,5.69,0,0,1-4,1.64h-1.64a4.61,4.61,0,0,1-3.64-1.64,4.67,4.67,0,0,1-1.13-3.86l3.21-24.38c.62-4.69.57-7.77-.13-9.25s-2.35-2.21-4.91-2.21a8.56,8.56,0,0,0-5.32,2.31q-2.81,2.31-3.11,4.62l-3.81,28.91a6.13,6.13,0,0,1-2.15,3.86,6,6,0,0,1-4.07,1.64h-1.63a4.6,4.6,0,0,1-3.64-1.64,4.87,4.87,0,0,1-1-3.86l3.21-24.38q.92-6.93-.24-9.15c-.69-1.54-2.33-2.31-4.9-2.31a8.55,8.55,0,0,0-5.31,2.31c-1.88,1.54-2.91,3.08-3.12,4.62l-3.8,28.91a6.13,6.13,0,0,1-2.15,3.86,6,6,0,0,1-4.07,1.64Z" transform="translate(0 0)" style="fill:#dfdfdf"/><path id="path5194" d="M375.48,93.13a4.61,4.61,0,0,1-3.64-1.64,4.87,4.87,0,0,1-1-3.86L376,48.51A6.34,6.34,0,0,1,378,44.65,6,6,0,0,1,382.07,43h1.35A4.47,4.47,0,0,1,387,44.56a4.66,4.66,0,0,1,1.24,3.76l-.09.67c0,.07,0,.1.08.1s.2,0,.21-.1q6.6-6.93,13.73-6.94a11.79,11.79,0,0,1,6.72,1.64q2.49,1.64,4,5.78c0,.07.05.1.18.1a.31.31,0,0,0,.21-.1q7-7.41,14.66-7.42,8,0,10.89,4.34t1.6,14.94l-3.46,26.3a6.08,6.08,0,0,1-2.15,3.86,5.67,5.67,0,0,1-4,1.64h-1.64a4.61,4.61,0,0,1-3.64-1.64,4.71,4.71,0,0,1-1.13-3.86l3.21-24.38q.93-7-.13-9.25c-.7-1.48-2.34-2.21-4.91-2.21a8.6,8.6,0,0,0-5.32,2.31q-2.81,2.31-3.11,4.62l-3.81,28.91a6.11,6.11,0,0,1-2.14,3.86,6.05,6.05,0,0,1-4.07,1.64h-1.64a4.61,4.61,0,0,1-3.64-1.64,4.86,4.86,0,0,1-1-3.86L401,63.25q.9-6.93-.24-9.15t-4.9-2.31a8.58,8.58,0,0,0-5.32,2.31q-2.81,2.31-3.11,4.62l-3.81,28.91a6.08,6.08,0,0,1-2.15,3.86,6,6,0,0,1-4.07,1.64Z" transform="translate(0 0)" style="fill:#dfdfdf"/><path id="path5196" d="M455.7,94.09q-8.47,0-11.72-4.63t-1.76-15.9l3.29-25.05a6.15,6.15,0,0,1,2.15-3.86A6,6,0,0,1,451.73,43h1.54a4.6,4.6,0,0,1,3.64,1.63A4.68,4.68,0,0,1,458,48.51l-3.12,23.71c-.59,4.49-.39,7.61.6,9.34s2.94,2.6,5.83,2.6a11.7,11.7,0,0,0,7.76-3.37c2.61-2.25,4.09-4.66,4.42-7.23l3.3-25.05A6.15,6.15,0,0,1,479,44.65,6,6,0,0,1,483.05,43H485a4.34,4.34,0,0,1,3.54,1.63,4.72,4.72,0,0,1,1.13,3.86L484.5,87.63a6.13,6.13,0,0,1-2.15,3.86,5.67,5.67,0,0,1-4,1.64h-1.25a4.88,4.88,0,0,1-3.75-1.55,5.24,5.24,0,0,1-1.12-4V87c0-.07,0-.1-.08-.1a.31.31,0,0,0-.21.1q-7.48,7.13-16.26,7.13Z" transform="translate(0 0)" style="fill:#dfdfdf"/><path id="path5198" d="M492,93.13a4.61,4.61,0,0,1-3.64-1.64,4.67,4.67,0,0,1-1.13-3.86l5.15-39.12a6.14,6.14,0,0,1,2.14-3.86A6,6,0,0,1,498.64,43h1.25a4.44,4.44,0,0,1,3.64,1.63,4.8,4.8,0,0,1,1.22,3.86l-.09.67c0,.07,0,.1.09.1a.29.29,0,0,0,.2-.1q7.5-7.12,16.26-7.13t12.07,5q3.39,4.92,1.87,16.48L532,87.63a6.11,6.11,0,0,1-2.14,3.86,6.05,6.05,0,0,1-4.07,1.64h-1.64a4.61,4.61,0,0,1-3.64-1.64,4.87,4.87,0,0,1-1-3.86l3-23.12q.94-7.23-.63-9.83t-6.3-2.7a11.74,11.74,0,0,0-7.77,3.37q-3.81,3.38-4.32,7.23l-3.3,25A6.11,6.11,0,0,1,498,91.49,6.05,6.05,0,0,1,494,93.13Z" transform="translate(0 0)" style="fill:#dfdfdf"/><path id="path5200" d="M540.64,93.13A4.6,4.6,0,0,1,537,91.49a4.67,4.67,0,0,1-1.13-3.86L541,48.51a6.14,6.14,0,0,1,2.14-3.86A6,6,0,0,1,547.23,43h2.51a4.6,4.6,0,0,1,3.64,1.63,4.72,4.72,0,0,1,1.13,3.86l-5.15,39.12a6.13,6.13,0,0,1-2.15,3.86,6,6,0,0,1-4.07,1.64Z" transform="translate(0 0)" style="fill:#dfdfdf"/><path id="path5202" d="M590.39,55.45q-2.26-4.05-7.95-4.05a11.34,11.34,0,0,0-9.11,4.05Q570,59.4,568.88,68.07T570,80.79q2.37,4,8,3.95a11.11,11.11,0,0,0,9-3.95q3.44-4,4.57-12.72T590.39,55.45Zm5.24,31.89q-7.25,6.75-18.81,6.75t-17.13-6.75q-5.46-6.84-3.82-19.27t8.88-19.18q7.37-6.84,18.92-6.84t17,6.84q5.56,6.75,3.93,19.18T595.63,87.34Z" transform="translate(0 0)" style="fill:#dfdfdf"/></g><path id="path5206" d="M542.78,20.85l6.66,14.94L560,20.85Z" transform="translate(0 0)" style="fill:#2dcaff"/><path id="path899" d="M541.31,19.9l.6,1.34,7.34,16.46,12.62-17.8Zm2.94,1.9h13.94l-8.56,12.08Z" transform="translate(0 0)" style="fill:#40b1d8"/></g><g id="icon"><path id="path92-2" d="M157.82,8.53,114.07,28.31l16.78,27.84,27-46.72Z" transform="translate(0 0)" style="fill:#dfdfdf"/><path id="path72" d="M43.5,33.37,46.45,1H2.28Z" transform="translate(0 0)" style="fill:#dfdfdf"/><path id="path76-7" d="M44.43,72.67l25.77,3L49.89,52.79Z" transform="translate(0 0)" style="fill:#2dcaff"/><path id="path80-0" d="M42,44.63,1,12.36,34.76,70.92Z" transform="translate(0 0)" style="fill:#2dcaff"/><path id="path84-9" d="M53.08,36.16l48.2-13.52L96.6,1H56.28Z" transform="translate(0 0)" style="fill:#2dcaff"/><path id="path88-3" d="M99.17,33.4l-42.75,12L83.66,76.05Z" transform="translate(0 0)" style="fill:#2dcaff"/><path id="path96-6" d="M110.54,19.16,150.83,1H106.62Z" transform="translate(0 0)" style="fill:#2dcaff"/><path id="path100-0" d="M94.63,74.53l28.92-5.74,1.71-3L108.13,37.42Z" transform="translate(0 0)" style="fill:#2dcaff"/><path id="path104-6" d="M77.21,86.3l-36-4.14c16.21,28.07,29.55,51.19,32.84,56.89Z" transform="translate(0 0)" style="fill:#dfdfdf"/><path id="path108-2" d="M86.84,89.29l-2.84,48,18.17-31.47Z" transform="translate(0 0)" style="fill:#2dcaff"/><path id="path112-6" d="M95.59,84.33,107.3,97,117,80.07Z" transform="translate(0 0)" style="fill:#2dcaff"/><path id="path903" d="M49.93,51.84a.94.94,0,0,0-1,.7L43.52,72.42a1,1,0,0,0,.66,1.17l.15,0,25.76,3A1,1,0,0,0,70.91,75L50.6,52.16A1,1,0,0,0,49.93,51.84Zm.41,2.89L67.83,74.4,45.64,71.86Z" transform="translate(0 0)" style="fill:#40b1d8"/><path id="path905" d="M.92,11.41a1,1,0,0,0-.92,1,1,1,0,0,0,.13.44L33.94,71.4a1,1,0,0,0,1.3.35,1,1,0,0,0,.44-.57l7.21-26.29a.93.93,0,0,0-.33-1l-41-32.28A1,1,0,0,0,.92,11.41Zm3.32,4.75L40.89,45,34.45,68.48Z" transform="translate(0 0)" style="fill:#40b1d8"/><path id="path907" d="M56.28,0a1,1,0,0,0-1,.86l-3.2,35.22a1,1,0,0,0,.86,1,1,1,0,0,0,.34,0l48.2-13.52a1,1,0,0,0,.67-1.12L97.53.75A.94.94,0,0,0,96.6,0Zm.87,1.9H95.84L100.16,22l-46,12.91Z" transform="translate(0 0)" style="fill:#40b1d8"/><path id="path909" d="M99.19,32.45a.8.8,0,0,0-.27,0l-42.76,12A.95.95,0,0,0,55.71,46L83,76.68a1,1,0,0,0,1.35.08,1.16,1.16,0,0,0,.26-.39l15.5-42.64a1,1,0,0,0-.56-1.22A1.7,1.7,0,0,0,99.19,32.45Zm-1.54,2.37L83.32,74.23,58.14,45.9Z" transform="translate(0 0)" style="fill:#40b1d8"/><path id="path911" d="M106.62,0a1,1,0,0,0-1,1,1.23,1.23,0,0,0,0,.2l3.92,18.21a1,1,0,0,0,1.13.73l.19-.07,40.29-18.2a1,1,0,0,0,.47-1.26.94.94,0,0,0-.86-.56Zm1.18,1.9h38.62l-35.2,15.91Z" transform="translate(0 0)" style="fill:#40b1d8"/><path id="path913" d="M108.15,36.47a1,1,0,0,0-.91.63L93.74,74.21a1,1,0,0,0,.57,1.22,1,1,0,0,0,.51,0l28.92-5.75a.94.94,0,0,0,.63-.45l1.71-3a.94.94,0,0,0,0-1L108.94,36.93A.93.93,0,0,0,108.15,36.47Zm.19,3.15,15.81,26.23-1.21,2.09L96.1,73.27Z" transform="translate(0 0)" style="fill:#40b1d8"/><path id="path915" d="M86.86,88.34a1,1,0,0,0-1,.89l-2.83,48a.95.95,0,0,0,1.77.53L103,106.3a1,1,0,0,0-.12-1.13L87.54,88.64A1,1,0,0,0,86.86,88.34Zm.8,3.23L101,106,85.19,133.33Z" transform="translate(0 0)" style="fill:#40b1d8"/><path id="path917" d="M117,79.12a.55.55,0,0,0-.18,0L95.41,83.4a.94.94,0,0,0-.75,1.11,1,1,0,0,0,.24.46l11.7,12.62a.94.94,0,0,0,1.34,0,1,1,0,0,0,.18-.22l9.74-16.88a1,1,0,0,0-.35-1.3,1,1,0,0,0-.48-.12Zm-1.86,2.29-8,14L97.45,84.93Z" transform="translate(0 0)" style="fill:#40b1d8"/><path id="path935" d="M157.8,7.58a1.18,1.18,0,0,0-.37.09L113.68,27.44a1,1,0,0,0-.48,1.26.31.31,0,0,1,0,.1L130,56.64a.94.94,0,0,0,1.3.32.9.9,0,0,0,.33-.34l27-46.71a1,1,0,0,0,.12-.48v-.9a1,1,0,0,0-1-.95Zm-1.58,2.72-25.39,44-15.4-25.55Z" transform="translate(0 0)" style="fill:#cfcfcf"/><path id="path937" d="M2.28,0a1,1,0,0,0-.59,1.7L42.91,34.12A1,1,0,0,0,44.25,34a.91.91,0,0,0,.19-.5L47.39,1a1,1,0,0,0-.86-1H2.28ZM5,1.9H45.41l-2.7,29.65Z" transform="translate(0 0)" style="fill:#cfcfcf"/><path id="path939" d="M41.26,81.21a1,1,0,0,0-.83,1.43c16.2,28.07,29.55,51.19,32.84,56.88a1,1,0,0,0,1.3.35,1,1,0,0,0,.47-.77l3.12-52.75a1,1,0,0,0-.84-1l-36-4.13ZM43,83.32l33.2,3.82-2.88,48.69Z" transform="translate(0 0)" style="fill:#cfcfcf"/></g></svg>